# xmcd CD database file
#
# Track frame offsets:
#	150
#	14735
#	32068
#	52640
#	69158
#	85711
#	102328
#	116125
#	133413
#	147589
#	160881
#	176343
#	191631
#	209477
#	224357
#	242129
#	257779
#
# Disc length: 3660 seconds
#
# Revision: 0
# Processed by: cddbd v1.5.1PL0 Copyright (c) Steve Scherf et al.
# Submitted via: CDex 1.51
#
DISCID=fc0e4a11
DTITLE=Various Artist - Promo Only Canada May 2004 Country Radio
DYEAR=2004
DGENRE=Country
TTITLE0=Tracy Byrd - How'd I Wind Up In Jamaica
TTITLE1=James Otto - Sunday Morning And Saturday Night
TTITLE2=Rascal Flatts - Mayberry
TTITLE3=Blake Shelton - When Somebody Knows You That Well
TTITLE4=Rachel Proctor - Me And Emily
TTITLE5=Jimmy Wayne - You Are
TTITLE6=Pinmonkey - Let's Kill Saturday Night
TTITLE7=Brad Paisley Feat. Alison Krauss - Whiskey Lullaby
TTITLE8=David Lee Murphy - Loco
TTITLE9=Scotty Emerick - The Coast Is Clear (Album Version)
TTITLE10=Rodney Atkins - Someone To Share It With
TTITLE11=SheDaisy - Passenger Seat
TTITLE12=Andy Griggs - She Thinks She Needs Me
TTITLE13=The Wilkinsons - L.A.
TTITLE14=Joe Nichols - If Nobody Believed In You
TTITLE15=Donovan Chapman - Panama City
TTITLE16=Chely Wright - Back Of The Bottom Drawer
EXTD=YEAR: 2004
EXTT0=
EXTT1=
EXTT2=
EXTT3=
EXTT4=
EXTT5=
EXTT6=
EXTT7=
EXTT8=
EXTT9=
EXTT10=
EXTT11=
EXTT12=
EXTT13=
EXTT14=
EXTT15=
EXTT16=
PLAYORDER=
